<?xml version="1.0" encoding="UTF-8" standalone="no"?><!DOCTYPE svg PUBLIC "-//W3C//DTD SVG 1.1//EN" "http://www.w3.org/Graphics/SVG/1.1/DTD/svg11.dtd"><svg width="100%" height="100%" viewBox="0 0 32 32" version="1.1" xmlns="http://www.w3.org/2000/svg" xmlns:xlink="http://www.w3.org/1999/xlink" xml:space="preserve" xmlns:serif="http://www.serif.com/" style="fill-rule:evenodd;clip-rule:evenodd;stroke-linejoin:round;stroke-miterlimit:2;"><rect id="Artboard2" x="0" y="0" width="32" height="32" style="fill-opacity:0;"/><clipPath id="_clip1"><rect x="0" y="0" width="32" height="32"/></clipPath><g clip-path="url(#_clip1)"><path d="M0,17.576c0.14,-3.144 0.627,-6.05 2.045,-8.223c3.137,-4.809 8.189,-9.353 13.233,-9.353c5.045,0 10.287,6.637 13.424,11.445c2.744,4.207 3.354,9.068 3.294,15.175c-0.07,7.07 -3.385,10.292 -7.285,14.443c-3.253,3.463 -5.204,8.537 -9.433,8.784c-5.618,0.328 -15.235,-10.135 -15.235,-23.227c-0,-0.471 -0.005,-0.947 -0.011,-1.426c1.531,0.781 3.151,1.354 4.669,2.17c0.752,0.404 2.097,0.981 2.157,2.084c0.354,2.531 0.575,5.084 0.666,7.641c0.262,1.292 1.132,2.201 2.259,2.678c0.083,0.034 0.176,0.013 0.246,-0.042c0.081,-0.063 0.133,-0.164 0.153,-0.268c0.357,-1.922 0.644,-3.859 0.859,-5.805c0.003,-0.034 0.027,-0.072 0.063,-0.072c0.035,0.001 0.055,0.04 0.055,0.074c0.051,4.305 -0.593,8.484 -0.797,12.76c-0.009,0.158 0.075,0.306 0.196,0.392c0.406,0.274 0.91,0.372 1.384,0.37c0.329,-0.001 0.669,-0.19 0.801,-0.526c1.472,-3.759 2.64,-7.598 3.51,-11.572c0.011,-0.05 0.051,-0.108 0.105,-0.095c0.054,0.013 0.072,0.084 0.066,0.135c-0.272,2.259 -0.634,4.505 -1.084,6.73c-0.05,0.249 -0.017,0.553 0.161,0.738c0.16,0.166 0.399,0.153 0.569,0.013c0.739,-0.609 1.466,-1.233 2.182,-1.872c1.349,-3.33 2.49,-6.759 3.416,-10.252c0.292,-1.185 1.055,-2.156 1.709,-3.129c1.759,-2.612 4.15,-5.075 4.482,-8.451c0.438,-4.453 -3.513,-7.344 -6.452,-9.592c-0.015,-0.014 -0.021,-0.039 -0.016,-0.059c0.005,-0.017 0.021,-0.032 0.038,-0.023c0.577,0.27 1.138,0.58 1.684,0.917c0.025,0.016 0.056,0.013 0.078,-0.008c0.026,-0.025 0.035,-0.065 0.033,-0.1c-0.124,-2.537 -1.73,-5.506 -4.097,-6.373c-1.548,-0.568 -3.329,-0.703 -4.947,-0.841c-0.818,-0.07 -1.637,-0.114 -2.457,-0.136c-1.294,-0.034 -2.542,0.533 -3.65,1.195c-2.57,1.536 -4.351,4.126 -5.865,6.775c-0.665,1.165 -2.017,3.271 -1.036,4.653c0.012,0.015 0.03,0.025 0.049,0.027c0.018,0.001 0.037,-0.007 0.05,-0.021c1.19,-1.314 2.588,-2.332 4.185,-2.982c-0.975,0.417 -1.726,1.335 -2.475,2.078c-0.475,0.471 -0.939,0.956 -1.392,1.452c-0.472,0.516 -1.035,1.092 -1.589,1.719Zm5.456,-5.249c0.045,-0.018 0.089,-0.036 0.134,-0.053c-0.044,0.018 -0.089,0.035 -0.134,0.053Zm13.989,6.605c0.969,-0.077 1.56,1.169 1.983,1.886c0.539,0.914 1.05,1.967 1.062,3.073c0.011,1.057 -0.632,1.784 -1.38,2.39c-0.441,0.357 -0.921,0.636 -1.489,0.621c-0.807,-0.021 -1.919,0.132 -2.458,-0.693c-0.65,-0.995 -0.545,-2.438 -0.575,-3.58c-0.022,-0.837 0.091,-1.71 0.456,-2.46c0.455,-0.931 1.504,-1.167 2.401,-1.237Zm-10.562,-3.237c1.364,-0.179 3.097,-0.237 4.046,1.047c0.749,1.014 1.09,2.327 1.16,3.602c0.093,1.693 0.3,3.998 -0.76,5.449c-0.893,1.223 -2.688,0.874 -3.92,0.844c-0.862,-0.022 -1.615,-0.421 -2.32,-0.921c-1.032,-0.732 -2.156,-1.565 -2.2,-3.023c-0.043,-1.437 0.674,-2.808 1.318,-4.012c0.607,-1.135 1.28,-2.803 2.676,-2.986Zm6.545,11.601c0.516,0.685 0.742,1.565 0.819,2.428c0.01,0.128 -0.015,0.263 -0.079,0.374c-0.053,0.093 -0.139,0.172 -0.243,0.187c-0.846,0.116 -1.71,0.045 -2.537,-0.178c-0.091,-0.025 -0.151,-0.117 -0.174,-0.21c-0.026,-0.106 -0.011,-0.226 0.044,-0.319c0.487,-0.815 1.015,-1.61 1.644,-2.307c0.151,-0.167 0.389,-0.155 0.526,0.025Z" style="fill:#ff2f00;"/></g></svg>